<svg width="144" height="141" viewBox="0 0 144 141" fill="none" xmlns="http://www.w3.org/2000/svg">
<path d="M48.6454 99.7651C48.6454 111.493 51.5744 121 58.1647 121C65.0872 121 67.6841 111.493 67.6841 99.7651C67.6841 75.8109 63.4221 74.6695 58.1647 74.6695C52.9073 74.6695 48.6454 75.811 48.6454 99.7651Z" fill="#F7ADB3"/>
<path d="M67.6843 99.7651C67.6843 75.8109 63.4223 74.6693 58.1649 74.6693V121C65.0874 121 67.6843 111.493 67.6843 99.7651Z" fill="#ED999B"/>
<path d="M89.7457 59.7696C88.1064 59.7905 84.5614 58.9289 82.2277 52.8614C81.1257 49.9964 77.3686 42.7995 73.7094 36H50.4767C57.3909 45.1558 78.0442 72.511 80.3552 75.6447C83.1361 79.4157 96.899 87.2112 96.899 87.2112C96.899 87.2112 91.3849 59.7487 89.7457 59.7696Z" fill="#AF8957"/>
<path d="M81.5188 60.0545C83.1678 61.9424 87.0791 62.9066 91.3564 63.3785C90.6925 61.1839 90.1187 59.7648 89.7457 59.7696C88.1064 59.7905 84.5613 58.9289 82.2277 52.8614C81.1256 49.9964 77.3685 42.7995 73.7094 36H63.5942C72.5551 52.906 73.8713 51.2998 81.5188 60.0545Z" fill="#A78150"/>
<path d="M63.9557 66.0824C64.0623 65.452 67.6056 46.3303 69.2026 36H50.0663C50.7249 44.3693 53.4816 55.7741 49.9325 75.3796C49.4351 78.1274 49.5148 84.484 49.5148 89.076C49.5148 98.6714 49.5148 106.45 57.3035 106.45C65.0921 106.45 65.0921 98.6714 65.0921 89.076C65.0921 81.7263 63.0904 71.2081 63.9557 66.0824Z" fill="#AF8957"/>
<path d="M63.9557 66.0824C64.0623 65.452 67.6055 46.3303 69.2026 36H60.3372C58.74 46.3303 59.8059 65.452 59.6995 66.0824C58.8341 71.2079 62.1697 84.8982 62.1697 92.2479C62.1697 99.5458 58.73 103.955 53.6572 105.649C54.6276 106.169 55.8249 106.45 57.3033 106.45C65.0919 106.45 65.0919 98.6714 65.0919 89.076C65.092 81.7263 63.0904 71.2081 63.9557 66.0824Z" fill="#A78150"/>
<path d="M49.5332 92.7774C52.0795 91.9016 54.6154 90.4412 57.055 88.4518C59.3105 90.1606 61.9822 91.5864 65.0802 92.3143C65.0901 91.432 65.092 90.5262 65.0921 89.6021C62.8192 88.9753 60.8106 87.9025 59.0832 86.6545C59.8924 85.8786 60.6877 85.044 61.4655 84.152C62.7218 82.7115 63.7502 81.3362 64.5313 80.2065C64.3085 77.868 64.0693 75.5273 63.9124 73.3577C58.5201 74.7602 52.4942 73.8008 50.2807 73.3562C50.1718 74.0211 50.0563 74.6948 49.9323 75.3796C49.7324 76.4841 49.6258 78.1723 49.5697 80.0939C50.7876 82.0272 52.5933 84.4865 55.0072 86.7286C53.3588 88.0306 51.5179 89.1816 49.5149 89.982C49.5159 90.9362 49.5194 91.8697 49.5332 92.7774ZM54.2118 82.0205C52.1139 79.4707 50.8043 77.0461 50.3035 76.0447C51.8876 76.3422 54.5306 76.73 57.5509 76.73C59.6183 76.73 61.8621 76.5467 64.0613 76.0292C64.0366 76.0656 64.0134 76.1034 63.9919 76.1428C63.9514 76.217 61.3762 80.876 57.0246 84.9818C55.9286 83.9885 54.9888 82.9648 54.2118 82.0205Z" fill="#E2818D"/>
<path d="M75.6484 69.3682C76.2257 70.1352 76.7641 70.851 77.2583 71.5085C80.5505 68.0074 83.5589 60.5511 84.7796 57.2728C84.1604 56.576 83.5511 55.692 82.9853 54.574C82.935 54.656 82.8922 54.744 82.8598 54.839C82.8498 54.868 81.8544 57.7833 80.3639 61.1418C78.6951 64.9029 77.0803 67.7147 75.6484 69.3682Z" fill="#E2818D"/>
<path d="M91.8605 68.151C92.1495 67.4859 91.8449 66.7134 91.1803 66.4231C90.5157 66.1322 89.741 66.4363 89.4494 67.1002C89.4202 67.1663 86.5101 73.6262 80.0941 75.2923C80.1972 75.4311 80.285 75.5494 80.3553 75.6446C80.7434 76.1708 81.3457 76.7756 82.0944 77.4266C88.8169 74.991 91.7303 68.4501 91.8605 68.151Z" fill="#E2818D"/>
<path d="M89.9197 59.0868L97.0846 59.0053C98.294 58.9915 99.236 60.0405 99.1028 61.2427C98.7117 64.7736 99.1221 71.2019 102.508 76.3649C106.16 81.9332 110.79 86.7682 113.445 90.0796C114.985 91.9989 114.515 94.8311 112.449 96.167C110.993 97.1085 109.106 97.0489 107.713 96.0175L92.987 85.3197C92.5857 85.0282 92.2911 84.6143 92.1488 84.1392C91.329 81.4019 88.6177 71.404 88.9854 59.998C89.0018 59.4925 89.4139 59.0893 89.9197 59.0868Z" fill="#F7ADB3"/>
<path d="M102.508 76.3648C99.1222 71.2019 98.712 64.7736 99.1031 61.2427C99.2362 60.0405 98.2943 58.9915 97.0848 59.0053L89.9199 59.0868C89.4141 59.0893 89.0019 59.4925 88.9856 59.9982C88.9524 61.0288 88.9446 62.0477 88.958 63.0509C88.9612 63.0501 95.0015 61.3899 95.7026 66.3126C96.3925 71.1563 98.3553 83.6489 114.024 94.2915C114.595 92.9393 114.44 91.3192 113.445 90.0794C110.79 86.7682 106.16 81.9332 102.508 76.3648Z" fill="#ED999B"/>
<circle cx="74" cy="71" r="67.5" stroke="#22222A" stroke-width="5"/>
<path d="M56 6L36 15L20 31L10 50L6.5 69L10 91L15.5 105.5" stroke="white" stroke-width="12"/>
</svg>
