<svg width="30" height="30" viewBox="0 0 30 30" fill="none" xmlns="http://www.w3.org/2000/svg">
<path d="M28.75 13.75C28.06 13.75 27.5 14.31 27.5 15C27.5 21.8925 21.8925 27.5 15 27.5C8.1075 27.5 2.5 21.8925 2.5 15C2.5 8.1075 8.1075 2.5 15 2.5C18.3556 2.5 21.5056 3.81125 23.8706 6.1925C24.3563 6.6825 25.1481 6.68563 25.6381 6.19875C26.1281 5.7125 26.1306 4.92125 25.6444 4.43125C22.8069 1.57375 19.0263 0 15 0C6.72875 0 0 6.72875 0 15C0 23.2712 6.72875 30 15 30C23.2712 30 30 23.2712 30 15C30 14.31 29.44 13.75 28.75 13.75Z" fill="white"/>
<path d="M20 13.75H16.25V10C16.25 9.31002 15.69 8.75002 15 8.75002C14.31 8.75002 13.75 9.31002 13.75 10V13.75H10C9.31 13.75 8.75 14.31 8.75 15C8.75 15.69 9.31 16.25 10 16.25H13.75V20C13.75 20.69 14.31 21.25 15 21.25C15.69 21.25 16.25 20.69 16.25 20V16.25H20C20.69 16.25 21.25 15.69 21.25 15C21.25 14.31 20.69 13.75 20 13.75Z" fill="white"/>
</svg>
