<svg width="51" height="50" viewBox="0 0 51 50" fill="none" xmlns="http://www.w3.org/2000/svg">
<g clip-path="url(#clip0)">
<path d="M39.7201 36.5406L49.9256 26.3844C49.9262 26.3838 49.9267 26.3831 49.9274 26.3825C50.6922 25.619 50.6898 24.3784 49.9272 23.6175C49.9266 23.6169 49.9261 23.6162 49.9254 23.6156L39.7199 13.4594C38.9554 12.6985 37.7187 12.7014 36.9577 13.466C36.1968 14.2306 36.1997 15.4672 36.9643 16.2281L43.8162 23.0469L2.45313 23.0469C1.37442 23.0469 0.500007 23.9213 0.500007 25C0.500007 26.0787 1.37442 26.9531 2.45313 26.9531L43.8162 26.9531L36.9645 33.7719C36.1999 34.5328 36.197 35.7694 36.9579 36.534C37.719 37.2987 38.9557 37.3014 39.7201 36.5406Z" fill="black"/>
</g>
<defs>
<clipPath id="clip0">
<rect width="50" height="50" fill="white" transform="translate(50.5) rotate(90)"/>
</clipPath>
</defs>
</svg>
